/* XPM */
static char *east[] = {
/* columns rows colors chars-per-pixel */
"64 64 142 2 ",
"   c #030202",
".  c #080706",
"X  c #0B0807",
"o  c #110E0D",
"O  c #13100E",
"+  c #151211",
"@  c #191615",
"#  c #1D1817",
"$  c #201A16",
"%  c #221E1C",
"&  c #26201C",
"*  c #28221E",
"=  c #252221",
"-  c #2A2623",
";  c #2B2827",
":  c #2C2A29",
">  c #342B24",
",  c #322D29",
"<  c #34302E",
"1  c #3A322D",
"2  c #353231",
"3  c #3B3633",
"4  c #3D3835",
"5  c #3C3A3A",
"6  c #403A36",
"7  c #433D3A",
"8  c #4A4137",
"9  c #48413E",
"0  c #6C5328",
"q  c #655235",
"w  c #454444",
"e  c #4B4542",
"r  c #4F4845",
"t  c #4D4B4A",
"y  c #504945",
"u  c #534E4C",
"i  c #54504E",
"p  c #59514A",
"a  c #565453",
"s  c #5B5653",
"d  c #5D5957",
"f  c #5C5959",
"g  c #685C4B",
"h  c #625B55",
"j  c #625E5B",
"k  c #6C645D",
"l  c #666260",
"z  c #6C6662",
"x  c #6D6B6B",
"c  c #726B67",
"v  c #76716E",
"b  c #7C746D",
"n  c #737171",
"m  c #7A7673",
"M  c #7E7874",
"N  c #7E7B7A",
"B  c #897146",
"V  c #857B6F",
"C  c #827B74",
"Z  c #837E7C",
"A  c #D59B26",
"S  c #D99D22",
"D  c #D29B2C",
"F  c #D99F28",
"G  c #CD9933",
"H  c #CC9A38",
"J  c #D39D30",
"K  c #D9A02B",
"L  c #D6A235",
"P  c #D8A131",
"I  c #D6A43D",
"U  c #BF9749",
"Y  c #BB9651",
"T  c #85807D",
"R  c #89827D",
"E  c #B59E78",
"W  c #D2A447",
"Q  c #D5AA54",
"!  c #D9AC50",
"~  c #D2A95C",
"^  c #C2A36C",
"/  c #D9B66F",
"(  c #DBBA77",
")  c #DBBC7B",
"_  c #E0BE75",
"`  c #E0BE79",
"'  c #E1C07B",
"]  c #878381",
"[  c #8B8582",
"{  c #8E8B8A",
"}  c #908986",
"|  c #928E8C",
" . c #96908D",
".. c #9C948D",
"X. c #9A9692",
"o. c #9A9999",
"O. c #A09586",
"+. c #A29A94",
"@. c #A29E9B",
"#. c #A6A09D",
"$. c #A8A29E",
"%. c #B8AC9E",
"&. c #A5A3A2",
"*. c #AAA5A2",
"=. c #ACA8A6",
"-. c #ADABA9",
";. c #B3AEAB",
":. c #B5B0AE",
">. c #BBB2A8",
",. c #BAB6B4",
"<. c #BDB9B6",
"1. c #BDBBBA",
"2. c #C7B596",
"3. c #C1BEBB",
"4. c #E0C281",
"5. c #D9C7A5",
"6. c #C5C1BE",
"7. c #CAC4BE",
"8. c #D1C4B3",
"9. c #E6D8BD",
"0. c #C5C2C1",
"q. c #CAC6C2",
"w. c #CCC9C6",
"e. c #D1CECC",
"r. c #D4D1CF",
"t. c #D6D3D1",
"y. c #DCD9D6",
"u. c #DDDBDA",
"i. c #E3DED7",
"p. c #E1DFDD",
"a. c #E4E1DE",
"s. c #F3EAD9",
"d. c #E6E3E2",
"f. c #E8E6E5",
"g. c #EAE8E7",
"h. c #EDEBEA",
"j. c #F0EFEE",
"k. c #F1F0EF",
"l. c #F6F6F5",
"z. c #F8F7F6",
"x. c #F8F8F7",
"c. c #FEFEFE",
/* pixels */
"c.c.c.c.c.c.c.c.c.z.5.~ W G K K L G D G D D P P G G D F P F G G G A F P H D G F P L G D G D D P J D G A F Q 8.l.c.c.c.c.c.c.c.c.",
"c.c.c.c.c.c.c.c.c.s.~ K K S S S S S S S S S S S S S S S S S S S S S S S S S S S S S S S S S S S S S S S S S ^ i.l.c.c.c.c.c.c.c.",
"c.c.c.c.c.c.c.c.8.^ L K S S S S F S F S S S S S F S S S S S S S S S F S S S S S S S S S S A S S S S S S S S D B O.c.c.c.c.c.c.c.",
"c.c.c.c.c.c.c.c.2.U A P I I I I I I I I I I I I I I I I W I I I I I I I I I I I I I I I I I I I I I I I I J A 0 V c.c.c.c.c.c.c.",
"c.c.c.c.c.c.c.c.2.Y ! / ) ' ( ) 4.) ) ) ) ) ) ( ) ) ` ) ) ) ` ( ( ` ) ) 2._ ' ( ) 4._ ( ) ) 4.) ) ) ) ) ( ) ! q C c.c.c.c.c.c.c.",
"c.c.c.c.c.c.c.c.2.E 9.a.d.h.f.d.d.f.h.f.d.h.d.d.f.f.f.f.d.f.h.f.f.j.f.a.s.g.g.f.d.f.h.f.f.h.h.f.f.g.g.g.g.f.9.g b c.c.c.c.c.c.c.",
"c.c.c.c.c.c.c.c.6.%.i.f.f.h.j.h.h.h.d.d.h.h.h.h.f.j.f.h.k.h.h.j.h.h.j.g.f.f.j.g.h.h.f.h.h.f.h.f.f.f.d.g.f.f.i.h C c.c.c.c.c.c.c.",
"c.c.c.c.c.c.c.c.7.>.l.l.l.c.l.z.l.c.l.l.c.l.c.c.c.z.z.z.x.x.l.l.x.l.z.z.z.z.c.z.l.c.z.c.c.z.c.l.l.c.c.l.k.z.j.h b c.c.c.c.c.c.c.",
"c.c.c.c.c.c.c.c.w.3.c.c.c.c.c.c.c.c.c.c.c.c.c.c.c.c.c.c.c.c.c.c.c.c.c.c.c.c.c.c.c.c.c.c.c.c.c.c.c.c.c.c.c.c.z.k C c.c.c.c.c.c.c.",
"c.c.c.c.c.c.c.c.t.q.z.c.c.c.c.c.c.c.c.c.c.c.c.c.c.c.c.c.c.c.c.c.c.c.c.c.c.c.c.c.c.c.c.c.c.c.c.c.c.c.c.c.c.c.z.k b c.c.c.c.c.c.c.",
"c.c.c.c.c.c.c.c.t.w.z.c.c.c.c.c.c.c.c.c.c.c.c.c.c.c.c.c.c.c.c.c.c.c.c.c.c.c.c.c.c.c.c.c.c.c.c.c.c.c.c.c.c.c.x.x Z c.c.c.c.c.c.c.",
"c.c.c.c.c.c.c.c.t.w.c.c.c.c.c.c.c.c.c.c.c.c.c.c.c.c.c.c.c.c.c.c.c.c.c.c.c.c.c.c.c.c.c.c.c.c.c.c.c.c.c.c.c.c.x.c Z c.c.c.c.c.c.c.",
"c.c.c.c.c.c.c.c.r.w.z.c.c.c.c.c.c.c.c.c.c.c.c.c.c.c.z.l.l.c.c.c.c.c.c.c.c.c.c.c.c.c.c.c.c.c.c.c.c.c.c.c.c.c.x.c Z c.c.c.c.c.c.c.",
"c.c.c.c.c.c.c.c.t.q.c.c.c.c.c.c.c.c.c.c.c.c.c.c.c.c.h.q.y.l.l.c.c.c.c.c.c.c.c.c.c.c.c.c.c.c.c.c.c.c.c.c.c.c.x.x Z c.c.c.c.c.c.c.",
"c.c.c.c.c.c.c.c.t.w.c.c.c.c.c.c.c.c.c.c.c.c.c.c.c.l.:.< 2 M =.u.l.l.z.c.c.c.c.c.c.c.c.c.c.c.c.c.c.c.c.c.c.c.c.c Z c.c.c.c.c.c.c.",
"c.c.c.c.c.c.c.c.r.w.c.c.c.c.c.c.c.c.c.c.c.c.c.c.c.c.6.#   + % : 5 c +.t.c.c.c.c.c.c.c.c.c.c.c.c.c.c.c.c.c.c.l.c Z c.c.c.c.c.c.c.",
"c.c.c.c.c.c.c.c.t.w.c.c.c.c.c.c.c.c.c.c.c.c.c.c.c.c.t.: X       o 1 h [ u.c.c.c.c.c.c.c.c.c.c.c.c.c.c.c.c.c.x.c Z c.c.c.c.c.c.c.",
"c.c.c.c.c.c.c.c.r.w.c.c.c.c.c.c.c.c.c.c.c.c.c.c.c.c.h.e #             + &.c.c.c.c.c.c.c.c.c.c.c.c.c.c.c.c.c.x.x Z c.c.c.c.c.c.c.",
"c.c.c.c.c.c.c.c.r.w.z.c.c.c.c.c.c.c.c.c.c.c.c.c.c.c.z.,.z             : ,.c.c.c.c.c.c.c.c.c.c.c.c.c.c.c.c.c.x.c Z c.c.c.c.c.c.c.",
"c.c.c.c.c.c.c.c.r.w.c.c.c.c.c.c.c.c.c.c.c.c.c.c.c.c.c.c.1.3     . 7 &.0.h.c.c.c.c.c.c.c.c.c.c.c.c.c.c.c.c.c.x.c Z c.c.c.c.c.c.c.",
"c.c.c.c.c.c.c.c.t.w.c.c.c.c.c.c.c.c.c.c.c.c.c.c.c.c.c.c.t.h     @ Z l.k.l.c.c.c.c.c.c.c.c.c.c.c.c.c.c.c.c.c.x.x Z c.c.c.c.c.c.c.",
"c.c.c.c.c.c.c.c.t.w.c.c.c.c.c.c.c.c.c.c.c.c.c.c.c.c.c.c.l.{     , ,.0...@.6.j.c.c.c.c.c.c.c.c.c.c.c.c.c.c.c.x.c Z c.c.c.c.c.c.c.",
"c.c.c.c.c.c.c.c.t.w.c.c.c.c.c.c.c.c.c.c.c.c.c.c.c.c.c.c.c.&.    @ 9 + O . - 0.c.c.c.c.c.c.c.c.c.c.c.c.c.c.c.c.c Z c.c.c.c.c.c.c.",
"c.c.c.c.c.c.c.c.r.w.z.c.c.c.c.c.c.c.c.c.c.c.c.c.f.t.e.q.;.j     X @   + , u u.c.c.c.c.c.c.c.c.c.c.c.c.c.c.c.l.c Z c.c.c.c.c.c.c.",
"c.c.c.c.c.c.c.c.t.w.c.c.c.c.c.c.c.c.c.c.c.c.c.c.r.$.X.R k &     X # - 5 z  .f.l.z.c.c.c.c.c.c.c.c.c.c.c.c.c.x.c Z c.c.c.c.c.c.c.",
"c.c.c.c.c.c.c.c.t.w.c.c.c.c.c.c.c.c.c.c.c.c.c.c.*.p , ; - +     : -.e.t.w.w.=.X.<.j.c.c.c.c.c.c.c.c.c.c.c.c.x.c Z c.c.c.c.c.c.c.",
"c.c.c.c.c.c.c.c.t.w.c.c.c.c.c.c.c.c.c.c.c.c.c.c.l.d.w.t.r.N     @ 9 9 ; = # @ + > h a.c.c.c.c.c.c.c.c.c.c.c.x.x Z c.c.c.c.c.c.c.",
"c.c.c.c.c.c.c.c.t.q.z.c.c.c.c.c.c.c.c.t.t.h.c.c.h.t.=.&.X.u     X 1 > * - &     O ; o.j.c.c.c.c.c.c.c.c.c.c.x.c Z c.c.c.c.c.c.c.",
"c.c.c.c.c.c.c.c.t.w.c.c.c.c.c.c.c.c.x.N d m @.| m j y 7 r <   X < M R [  . .5 X     : w.c.c.c.c.c.c.c.c.c.c.x.c Z c.c.c.c.c.c.c.",
"c.c.c.c.c.c.c.c.t.w.c.c.c.c.c.c.c.c.c.k     o   . o 8 c @.T   % z z.j.t.d.j.M +     X ,.l.c.c.c.c.c.c.c.c.c.x.x Z c.c.c.c.c.c.c.",
"c.c.c.c.c.c.c.c.t.w.c.c.c.c.c.c.c.c.c.6.5   X o n w.e.u.f.o.  @ 9 v 7 < z T 7 .   X e t.c.c.c.c.c.c.c.c.c.c.c.c Z c.c.c.c.c.c.c.",
"c.c.c.c.c.c.c.c.t.w.z.c.c.c.c.c.c.c.c.c.@.j   . 4 l a t t :   X O + . & < ; o   3 T w.z.c.c.c.c.c.c.c.c.c.c.x.c Z c.c.c.c.c.c.c.",
"c.c.c.c.c.c.c.c.r.w.c.c.c.c.c.c.c.c.c.c.r.@.:   o % # % % @   o % w a z 4 O . X z q.l.c.c.c.c.c.c.c.c.c.c.c.x.c Z c.c.c.c.c.c.c.",
"c.c.c.c.c.c.c.c.t.w.l.c.c.c.c.c.c.c.c.c.c.f.Z X     * h C h   2 v z.x.c.x   X 9 o.c.c.c.c.c.c.c.c.c.c.c.c.c.x.x Z c.c.c.c.c.c.c.",
"c.c.c.c.c.c.c.c.t.w.c.c.c.c.c.c.c.c.c.c.c.z.3.r %   : ;.t.|   5 C z.h.=.<   # -.u.c.c.c.c.c.c.c.c.c.c.c.c.c.x.c Z c.c.c.c.c.c.c.",
"c.c.c.c.c.c.c.c.t.w.c.c.c.c.c.c.c.c.c.c.c.c.l.w.d   @ x N u   @ < l a ;   O z h.c.c.c.c.c.c.c.c.c.c.c.c.c.c.x.c Z c.c.c.c.c.c.c.",
"c.c.c.c.c.c.c.c.t.w.c.c.c.c.c.c.c.c.c.c.c.c.c.c.N   . # + X           X . @ +.l.c.c.c.c.c.c.c.c.c.c.c.c.c.c.x.x Z c.c.c.c.c.c.c.",
"c.c.c.c.c.c.c.c.t.w.c.c.c.c.c.c.c.c.c.c.c.c.c.c.&.e X . + +   X . O ; r t u 6.z.c.c.c.c.c.c.c.c.c.c.c.c.c.c.x.c Z c.c.c.c.c.c.c.",
"c.c.c.c.c.c.c.c.r.w.z.c.c.c.c.c.c.c.c.c.c.c.c.c.t.X.# X k {   % > 1 #  .h.h.z.c.c.c.c.c.c.c.c.c.c.c.c.c.c.c.c.c Z c.c.c.c.c.c.c.",
"c.c.c.c.c.c.c.c.r.q.c.c.c.c.c.c.c.c.c.c.c.c.z.t.X.u + f *.#.  < h Z & d =.y.z.c.c.c.c.c.c.c.c.c.c.c.c.c.c.c.l.c Z c.c.c.c.c.c.c.",
"c.c.c.c.c.c.c.c.t.w.c.c.c.c.c.c.c.c.c.c.c.c.t.+.w   # <.h.&.  9 [ e.< X a $.h.c.c.c.c.c.c.c.c.c.c.c.c.c.c.c.x.c Z c.c.c.c.c.c.c.",
"c.c.c.c.c.c.c.c.t.w.z.c.c.c.c.c.c.c.c.c.c.i.x - o o C d.l.|   w [ l.t.d X - k 6.a.z.c.c.c.c.c.c.c.c.c.c.c.c.x.c Z c.c.c.c.c.c.c.",
"c.c.c.c.c.c.c.c.t.w.z.c.c.c.c.c.c.c.c.c.*.l +   O 3 t.c.h.[   9 R c.c.,.2   X - u [ t.c.c.c.c.c.c.c.c.c.c.c.x.x Z c.c.c.c.c.c.c.",
"c.c.c.c.c.c.c.c.r.q.c.c.c.c.c.c.c.l.i.1.d , X # # - q.c.h.Z   r [ c.c.y.k +     # w [ ,.3.r.f.z.c.c.c.c.c.c.x.c Z c.c.c.c.c.c.c.",
"c.c.c.c.c.c.c.c.t.w.c.c.c.c.c.a.t.@.h - + - u { u % s q.7.j   y | c.c.c.,.m #         + $ r Z *.w.l.c.c.c.c.x.c Z c.c.c.c.c.c.c.",
"c.c.c.c.c.c.c.c.t.w.c.c.c.c.z...s .     3 M j.c.=.h @ b V 9   e [ c.c.c.c.d.4                 O e w.x.c.c.c.x.x Z c.c.c.c.c.c.c.",
"c.c.c.c.c.c.c.c.t.w.c.c.c.a.3.i , 6 h X.3.t.c.c.d.3.3 - ; @   7 Z c.c.c.c.l.X.+       @ > y y ; - j u.x.c.c.c.c Z c.c.c.c.c.c.c.",
"c.c.c.c.c.c.c.c.r.q.c.c.c.h.u.-.-.6.t.l.c.c.c.c.c.x.-.- X     - c c.c.c.c.c.h.-.] h m =.6.e.w.1.@.X.h.x.c.c.x.c Z c.c.c.c.c.c.c.",
"c.c.c.c.c.c.c.c.t.w.z.c.c.c.c.c.c.c.c.c.c.c.c.c.c.c.h.a #     * k c.c.c.c.c.c.c.t.$.q.z.c.c.c.c.c.p.c.c.c.c.x.c Z c.c.c.c.c.c.c.",
"c.c.c.c.c.c.c.c.t.w.c.c.c.c.c.c.c.c.c.c.c.c.c.c.c.c.z.*.d     @ s c.c.c.c.c.c.c.z.z.c.c.c.c.c.c.c.x.c.c.c.c.x.c Z c.c.c.c.c.c.c.",
"c.c.c.c.c.c.c.c.t.w.c.c.c.c.c.c.c.c.c.c.c.c.c.c.c.c.z.7.c     . u c.c.c.c.c.c.c.c.c.c.c.c.c.c.c.c.c.c.c.c.c.x.x Z c.c.c.c.c.c.c.",
"c.c.c.c.c.c.c.c.t.w.c.c.c.c.c.c.c.c.c.c.c.c.c.c.c.c.c.a.]       5 p.c.c.c.c.c.c.c.c.c.c.c.c.c.c.c.c.c.c.c.c.x.c Z c.c.c.c.c.c.c.",
"c.c.c.c.c.c.c.c.r.w.c.c.c.c.c.c.c.c.c.c.c.c.c.c.c.c.c.l. .      < w.c.c.c.c.c.c.c.c.c.c.c.c.c.c.c.c.c.c.c.c.x.c Z c.c.c.c.c.c.c.",
"c.c.c.c.c.c.c.c.t.w.l.c.c.c.c.c.c.c.c.c.c.c.c.c.c.c.c.c.*.@     2 w.c.c.c.c.c.c.c.c.c.c.c.c.c.c.c.c.c.c.c.c.x.c Z c.c.c.c.c.c.c.",
"c.c.c.c.c.c.c.c.t.w.c.c.c.c.c.c.c.c.c.c.c.c.c.c.c.c.c.c.w.u     5 d.c.c.c.c.c.c.c.c.c.c.c.c.c.c.c.c.c.c.c.c.x.c Z c.c.c.c.c.c.c.",
"c.c.c.c.c.c.c.c.t.w.c.c.c.c.c.c.c.c.c.c.c.c.c.c.c.c.c.c.d.m X @ a l.c.c.c.c.c.c.c.c.c.c.c.c.c.c.c.c.c.c.c.c.x.x Z c.c.c.c.c.c.c.",
"c.c.c.c.c.c.c.c.t.w.c.c.c.c.c.c.c.c.c.c.c.c.c.c.c.c.c.c.c.w.c } -.c.c.c.c.c.c.c.c.c.c.c.c.c.c.c.c.c.c.c.c.c.x.c Z c.c.c.c.c.c.c.",
"c.c.c.c.c.c.c.c.t.w.z.c.c.c.c.c.c.c.c.c.c.c.c.c.c.c.c.c.c.c.c.c.c.c.c.c.c.c.c.c.c.c.c.c.c.c.c.c.c.c.c.c.c.c.x.x Z c.c.c.c.c.c.c.",
"c.c.c.c.c.c.c.c.t.w.c.c.c.c.c.c.c.c.c.c.c.c.c.c.c.c.c.c.c.c.c.c.c.c.c.c.c.c.c.c.c.c.c.c.c.c.c.c.c.c.c.c.c.c.x.c Z c.c.c.c.c.c.c.",
"c.c.c.c.c.c.c.c.t.w.c.c.c.c.c.c.c.c.c.c.c.c.c.c.c.c.c.c.c.c.c.c.c.c.c.c.c.c.c.c.c.c.c.c.c.c.c.c.c.c.c.c.c.c.x.c Z c.c.c.c.c.c.c.",
"c.c.c.c.c.c.c.c.t.q.l.c.c.c.c.c.c.c.c.c.c.c.c.c.c.c.c.c.c.c.c.c.c.c.c.c.c.c.c.c.c.c.c.c.c.c.c.c.c.c.c.c.c.c.h.c Z c.c.c.c.c.c.c.",
"c.c.c.c.c.c.c.c.t.7.f.c.c.c.c.c.c.c.c.c.c.c.c.c.c.c.c.c.c.c.c.c.c.c.c.c.c.c.c.c.c.c.c.c.c.c.c.c.c.c.c.c.c.c.,.h Z c.c.c.c.c.c.c.",
"c.c.c.c.c.c.c.c.h.t.@.*.*.*.*.*.*.*.*.*.*.*.*.*.*.*.*.*.*.*.*.*.*.*.*.*.*.*.*.*.*.*.*.*.*.*.*.*.*.*.*.*.*.*.[ @.w.c.c.c.c.c.c.c.",
"c.c.c.c.c.c.c.c.c.k.;.*.*.*.*.*.*.*.*.*.*.*.*.*.*.*.*.*.*.*.*.*.*.*.*.*.*.*.*.*.*.*.*.*.*.*.*.*.*.*.*.*.*.*.;.l.c.c.c.c.c.c.c.c."
};
