/* XPM */
static char *north[] = {
/* columns rows colors chars-per-pixel */
"64 64 153 2 ",
"   c #020101",
".  c #090706",
"X  c #0A0807",
"o  c #0D0B0A",
"O  c #110F0D",
"+  c #13100E",
"@  c #151211",
"#  c #191615",
"$  c #1B1817",
"%  c #211D1C",
"&  c #28221F",
"*  c #262322",
"=  c #2A2522",
"-  c #2D2A29",
";  c #332C25",
":  c #322E2B",
">  c #36312F",
",  c #3B332D",
"<  c #393633",
"1  c #3E3835",
"2  c #3C3A39",
"3  c #40372E",
"4  c #413A35",
"5  c #423E3A",
"6  c #46413F",
"7  c #4B423A",
"8  c #615037",
"9  c #464443",
"0  c #4B4542",
"q  c #4F4B49",
"w  c #504741",
"e  c #514946",
"r  c #544D4A",
"t  c #5B544F",
"y  c #565453",
"u  c #5B5552",
"i  c #5D5A59",
"p  c #655D57",
"a  c #635E5C",
"s  c #6A625D",
"d  c #666362",
"f  c #6B6563",
"g  c #6D6A69",
"h  c #776F66",
"j  c #76716E",
"k  c #7A736E",
"l  c #777371",
"z  c #7A7673",
"x  c #7C7A78",
"c  c #A27827",
"v  c #A27F3D",
"b  c #82745F",
"n  c #807771",
"m  c #837E7C",
"M  c #DA9C1E",
"N  c #CE982D",
"B  c #D99C22",
"V  c #D39B2B",
"C  c #D89F28",
"Z  c #C69536",
"A  c #CA9732",
"S  c #CC9933",
"D  c #C5963A",
"F  c #CA9A3B",
"G  c #D29C31",
"H  c #DAA12A",
"J  c #D5A035",
"K  c #D3A13B",
"L  c #D8A63F",
"P  c #AB8742",
"I  c #B3955F",
"U  c #85807D",
"Y  c #8A827D",
"T  c #B89A64",
"R  c #A89572",
"E  c #CA9C43",
"W  c #CDA24D",
"Q  c #D2A753",
"!  c #DCB15A",
"~  c #D9B46A",
"^  c #DCB86E",
"/  c #C5AB7C",
"(  c #D6B572",
")  c #DBB974",
"_  c #D3B57D",
"`  c #DDBD7B",
"'  c #E0BE79",
"]  c #8B8683",
"[  c #8D8B8A",
"{  c #928B86",
"}  c #938D8A",
"|  c #93908F",
" . c #9B948E",
".. c #9C9794",
"X. c #9E9996",
"o. c #A29B95",
"O. c #A49F9A",
"+. c #A5A19E",
"@. c #A9A29D",
"#. c #B1A597",
"$. c #A5A2A1",
"%. c #ABA6A2",
"&. c #AEA9A5",
"*. c #AFACAB",
"=. c #B0A7A0",
"-. c #B2AEAC",
";. c #B5B1AD",
":. c #BAB5B3",
">. c #BCB8B6",
",. c #BDBBBA",
"<. c #D1B582",
"1. c #C9B490",
"2. c #D5BE91",
"3. c #C8BBA9",
"4. c #C2BEBB",
"5. c #DEC697",
"6. c #DFC99D",
"7. c #E7C98F",
"8. c #E1C693",
"9. c #E4C993",
"0. c #E8CC95",
"q. c #E3CB9B",
"w. c #D5C3A3",
"e. c #DDC9A2",
"r. c #C4C0BC",
"t. c #E1CDA7",
"y. c #E3D3B8",
"u. c #CAC6C3",
"i. c #CDC8C4",
"p. c #CECBCA",
"a. c #D6CEC3",
"s. c #D2CECC",
"d. c #D5D1CF",
"f. c #D6D4D3",
"g. c #D9D6D4",
"h. c #DDDAD6",
"j. c #DEDBDA",
"k. c #E6DDCD",
"l. c #E6DFD3",
"z. c #E0DEDC",
"x. c #EDE4D5",
"c. c #E5E1DC",
"v. c #EEE7DA",
"b. c #EFEADF",
"n. c #E6E3E2",
"m. c #E8E6E5",
"M. c #EAE8E6",
"N. c #EDEBEA",
"B. c #F0EFEE",
"V. c #F1F0EF",
"C. c #F8F7F7",
"Z. c #F9F8F7",
"A. c #FEFEFE",
/* pixels */
"A.A.A.A.A.A.A.A.A.A.v.y.e.e.5.5.5.9.w.5.w.q.q.6.5.w.q.8.q.5.2.9.q.e.q.q.8.w.w.9.w.7.w.8.5.e.q.0.5.9.5.e.t.x.A.A.A.A.A.A.A.A.A.A.",
"A.A.A.A.A.A.A.A.A.l.<.Q E D N S S V V A G J C V D A N S A V D G S F J V A A V V S A D V A V J C A S D D E _ n.A.A.A.A.A.A.A.A.A.",
"A.A.A.A.A.A.A.A.A.2.E H B B B B B B M B B B M B B B B B B B B B B B B B B B B B B B M B B B B B B B B B M E 3.Z.A.A.A.A.A.A.A.A.",
"A.A.A.A.A.A.A.b./ W H H B B B B B B B B B B B B C B B B B B B B B B B B C B B B B B B B B B B B B C B B M M P b x.A.A.A.A.A.A.A.",
"A.A.A.A.A.A.A.v.I Z C K K K K K G K K F K K J K K K F K L G F K L F K F K K K K F J K K K F K K K K F L G H c 7 i.A.A.A.A.A.A.A.",
"A.A.A.A.A.A.A.x.T W ! ) ) ' ^ ` ) ) ` ( ' ` ` ) ` ' ^ ` <.) ( ~ ' ` ) ) ) ) ' ) ` ) ) ` ` ^ ^ ` ) ` ` ^ ' ! v 8 k.A.A.A.A.A.A.A.",
"A.A.A.A.A.A.A.v.T 1.k.n.M.n.M.N.m.m.N.z.N.m.N.m.n.m.m.N.m.m.M.v.B.m.m.n.m.m.v.N.N.m.m.M.m.m.N.B.n.M.m.M.B.k.R 7 d.A.A.A.A.A.A.A.",
"A.A.A.A.A.A.A.M.#.a.N.M.V.M.M.B.n.N.N.m.m.C.m.n.V.V.m.N.M.m.V.B.m.m.C.B.M.B.m.m.B.n.m.B.M.m.N.n.N.N.V.m.m.M.@.7 f.A.A.A.A.A.A.A.",
"A.A.A.A.A.A.A.N.=.h.Z.A.C.C.A.C.C.C.C.C.C.C.C.C.C.A.C.A.C.C.C.C.C.C.C.C.C.C.C.A.C.A.C.Z.C.A.V.C.C.C.A.C.C.A.-.7 d.A.A.A.A.A.A.A.",
"A.A.A.A.A.A.A.N.;.z.A.A.A.A.A.A.A.A.A.A.A.A.A.A.A.A.A.A.A.A.A.A.A.A.A.A.A.A.A.A.A.A.A.A.A.A.A.A.A.A.A.A.A.A.:.7 f.A.A.A.A.A.A.A.",
"A.A.A.A.A.A.A.B.r.m.A.A.A.A.A.A.A.A.A.A.A.A.A.A.A.A.A.A.A.A.A.A.A.A.A.A.A.A.A.A.A.A.A.A.A.A.A.A.A.A.A.A.A.A.:.e d.A.A.A.A.A.A.A.",
"A.A.A.A.A.A.A.B.r.m.A.A.A.A.A.A.A.A.A.A.A.A.A.A.A.A.A.A.A.A.A.A.A.A.A.A.A.A.A.A.A.A.A.A.A.A.A.A.A.A.A.A.A.A.>.e f.A.A.A.A.A.A.A.",
"A.A.A.A.A.A.A.V.r.n.A.A.A.A.A.A.A.A.A.A.A.A.A.A.A.A.A.A.A.A.A.A.A.A.A.A.A.A.A.A.A.A.A.A.A.A.A.A.A.A.A.A.A.A.,.r f.A.A.A.A.A.A.A.",
"A.A.A.A.A.A.A.V.r.m.A.A.A.A.A.A.A.A.A.A.A.A.A.A.A.A.A.A.A.A.A.A.A.A.A.A.A.A.A.A.A.A.A.A.A.A.A.A.A.A.A.A.A.A.,.r f.A.A.A.A.A.A.A.",
"A.A.A.A.A.A.A.B.r.m.A.A.A.A.A.A.A.A.A.A.A.A.A.A.A.A.A.A.A.A.A.A.A.A.A.A.A.A.A.A.A.A.A.A.A.A.A.A.A.A.A.A.A.A.,.r f.A.A.A.A.A.A.A.",
"A.A.A.A.A.A.A.V.r.m.A.A.A.A.A.A.A.A.A.A.A.A.A.A.A.A.A.A.A.A.A.A.A.A.A.A.A.A.A.A.A.A.A.A.A.A.A.A.A.A.A.A.A.A.,.r f.A.A.A.A.A.A.A.",
"A.A.A.A.A.A.A.N.r.m.A.A.A.A.A.A.A.A.A.A.A.A.A.A.A.A.A.A.A.A.A.A.A.A.A.A.A.A.A.A.A.A.A.A.A.A.A.A.A.A.A.A.A.A.,.r f.A.A.A.A.A.A.A.",
"A.A.A.A.A.A.A.V.r.m.A.A.A.A.A.A.A.A.A.A.A.A.A.A.A.A.A.A.A.A.A.A.A.A.A.A.A.A.A.A.A.A.A.A.A.A.A.A.A.A.A.A.A.A.,.r f.A.A.A.A.A.A.A.",
"A.A.A.A.A.A.A.V.r.m.A.A.A.A.A.A.A.A.A.A.A.A.A.A.A.A.A.A.A.A.A.A.A.A.A.A.A.A.A.A.A.A.A.A.A.A.A.A.A.A.A.A.A.A.,.r f.A.A.A.A.A.A.A.",
"A.A.A.A.A.A.A.V.r.m.A.A.A.A.A.A.A.A.A.A.A.A.A.A.A.A.A.A.A.A.A.A.A.A.B.u.A.A.A.A.A.A.A.A.A.A.A.A.A.A.A.A.A.A.,.r f.A.A.A.A.A.A.A.",
"A.A.A.A.A.A.A.V.r.M.A.A.A.A.A.A.A.A.A.A.A.A.A.A.A.A.A.A.A.A.A.A.A.r.} 5 d ,.A.A.A.A.A.A.A.A.A.A.A.A.A.A.A.A.,.r f.A.A.A.A.A.A.A.",
"A.A.A.A.A.A.A.B.r.n.A.A.A.A.A.A.A.A.A.A.A.A.A.A.A.A.A.A.A.A.A.C.z.] 0 o # ] C.A.A.A.A.A.A.A.A.A.A.A.A.A.A.A.,.r f.A.A.A.A.A.A.A.",
"A.A.A.A.A.A.A.V.r.m.A.A.A.A.A.A.A.A.A.A.A.A.A.A.A.A.A.A.A.A.A.,.t %       < ;.C.A.A.A.A.A.A.A.A.A.A.A.A.A.A.,.r f.A.A.A.A.A.A.A.",
"A.A.A.A.A.A.A.B.r.m.A.A.A.A.A.A.A.A.A.A.A.A.A.A.A.A.A.A.A.A.v.z .           g s.C.A.A.A.A.A.A.A.A.A.A.A.A.A.,.r f.A.A.A.A.A.A.A.",
"A.A.A.A.A.A.A.B.r.M.A.A.A.A.A.A.A.A.A.A.A.A.A.C.d.;.;.d.C.A.n.k             r %.B.A.A.A.A.A.A.A.A.A.A.A.A.A.,.r f.A.A.A.A.A.A.A.",
"A.A.A.A.A.A.A.V.r.n.A.A.A.A.A.A.A.A.A.A.A.A.A.B.O.s s o.h.N.j.m #           0 { N.A.A.A.A.A.A.A.A.A.A.A.A.A.,.r f.A.A.A.A.A.A.A.",
"A.A.A.A.A.A.A.N.r.m.A.A.A.A.A.A.A.A.A.A.A.A.A.n.s : O # - y [ f.*.2       &  .V.A.A.A.A.A.A.A.A.A.A.A.A.A.A.,.r f.A.A.A.A.A.A.A.",
"A.A.A.A.A.A.A.C.r.m.A.A.A.A.A.A.A.A.A.A.A.A.A.m.Y 1       o # g C.i o . # ] C.A.A.A.A.A.A.A.A.A.A.A.A.A.A.A.,.r f.A.A.A.A.A.A.A.",
"A.A.A.A.A.A.A.N.r.m.A.A.A.A.A.A.A.A.A.A.A.A.A.C.4.p           y A.d O @ 5 &.A.A.A.A.A.A.A.A.A.A.A.A.A.A.A.A.,.r f.A.A.A.A.A.A.A.",
"A.A.A.A.A.A.A.N.r.n.A.A.A.A.A.A.A.A.A.A.A.A.A.A.A.,.2       @ z A.f @ $ z r.A.A.C.n.N.A.A.A.A.A.A.A.A.A.A.A.,.r f.A.A.A.A.A.A.A.",
"A.A.A.A.A.A.A.C.r.n.A.A.A.A.A.A.A.A.A.A.A.A.A.A.A.A.x       2 d.A.d $ %  .f.A.A.f.:.u.A.A.A.A.A.A.A.A.A.A.A.,.r f.A.A.A.A.A.A.A.",
"A.A.A.A.A.A.A.N.r.M.A.A.A.A.A.A.A.h.s.n.A.:.s.C.A.A...$ . o d C.A.g $ & @.g.A.N.i - 1 9 ..N.A.A.A.A.A.A.A.A.,.r f.A.A.A.A.A.A.A.",
"A.A.A.A.A.A.A.B.r.m.A.A.A.A.A.A.A.] u 9 d < U u.A.A.@., O & z A.A.a   * :.n.V.p.*       & X.g.A.A.A.A.A.A.A.,.r f.A.A.A.A.A.A.A.",
"A.A.A.A.A.A.A.B.r.m.A.A.A.A.A.A.Z.Y 6   # . r ] p.B.+.> O = z A.A.i . * p.N.f.X.$         U u.A.A.A.A.A.A.A.,.r f.A.A.A.A.A.A.A.",
"A.A.A.A.A.A.A.V.r.m.A.A.A.A.A.A.A.d.]         @ 0 -.&.3 O ; n A.A.y . - j.A...* X         j ,.A.A.A.A.A.A.A.,.r f.A.A.A.A.A.A.A.",
"A.A.A.A.A.A.A.B.r.m.A.A.A.A.A.A.A.B.r.r         * ..%.3 O > Y A.Z.y . $ ] x 2 o # 1 y l ..u.n.A.A.A.A.A.A.A.,.r f.A.A.A.A.A.A.A.",
"A.A.A.A.A.A.A.V.r.M.A.A.A.A.A.A.A.A.C.;.> O & 7 m u.$.> + 7 | A.C.y   o * % 9 l X.4.s.M.A.A.A.A.A.A.A.A.A.A.,.r f.A.A.A.A.A.A.A.",
"A.A.A.A.A.A.A.V.r.n.A.A.A.A.A.A.A.A.A.p.5 $ e { s.B.%.3 + r o.A.V.q     o - } j.A.A.A.A.A.A.A.A.A.A.A.A.A.A.,.r f.A.A.A.A.A.A.A.",
"A.A.A.A.A.A.A.B.r.m.A.A.A.A.A.A.A.A.A.>.o : -.C.A.A.@.3 @ f %.f. .-   # Y ,.C.C.A.A.A.A.A.A.A.A.A.A.A.A.A.A.,.r f.A.A.A.A.A.A.A.",
"A.A.A.A.A.A.A.V.r.m.A.A.A.A.A.A.A.A.N.U   6 i.A.A.A.%.3 + w a r @ .   * 4.m.A.A.A.A.A.A.A.A.A.A.A.A.A.A.A.A.,.r f.A.A.A.A.A.A.A.",
"A.A.A.A.A.A.A.N.r.n.A.A.A.A.A.A.A.A.f.r   g z.A.A.A.%.1 O = 1 7 9 #   * 4.m.A.A.A.A.A.A.A.A.A.A.A.A.A.A.A.A.,.r f.A.A.A.A.A.A.A.",
"A.A.A.A.A.A.A.V.r.m.A.A.A.A.A.A.A.A.r.$   [ C.A.A.A.%.1 o   # s :.<   * >.m.A.A.A.A.A.A.A.A.A.A.A.A.A.A.A.A.,.r f.A.A.A.A.A.A.A.",
"A.A.A.A.A.A.A.V.r.m.A.A.A.A.A.A.A.f.| X   X.A.A.A.A...% o > j j.n.9   $ @.z.A.A.A.A.A.A.A.A.A.A.A.A.A.A.A.A.,.r f.A.A.A.A.A.A.A.",
"A.A.A.A.A.A.A.V.r.m.A.A.A.A.A.A.A.j > o * :.A.C.u.x $   o t ..C.f.q   $ } d.A.A.A.A.A.A.A.A.A.A.A.A.A.A.A.A.,.r f.A.A.A.A.A.A.A.",
"A.A.A.A.A.A.A.V.r.m.A.A.A.A.A.C.j.0 @ # 0 :.j.,.m <     . p %.B.i.2   # n r.A.A.A.A.A.A.A.A.A.A.A.A.A.A.A.A.,.r f.A.A.A.A.A.A.A.",
"A.A.A.A.A.A.A.B.r.m.A.A.A.A.Z.r.s #   $ u Y u = $ - *   O m r.m.>.2   X ; ] z.z.z.z.j.h.f.p.p.j.A.A.A.A.A.A.,.r f.A.A.A.A.A.A.A.",
"A.A.A.A.A.A.A.V.r.m.A.A.A.A.n.l               o q %.]   ; p.A.n.&.<       - f n n n k s e < > k C.A.A.A.A.A.,.r f.A.A.A.A.A.A.A.",
"A.A.A.A.A.A.A.B.r.n.A.A.A.N.*.-             4 h ,.z.p.$.:.B.A.n.@.1       + = - : : ; * % + O r C.A.A.A.A.A.,.r f.A.A.A.A.A.A.A.",
"A.A.A.A.A.A.A.B.r.n.A.A.C.;.p             6 -.c.A.A.A.A.A.A.A.N.s.9                         @ j C.A.A.A.A.A.,.r f.A.A.A.A.A.A.A.",
"A.A.A.A.A.A.A.V.r.M.A.A.C.o.0         o - ] n.A.A.A.A.A.A.A.A.A.V.g $ o o         X X o O $ < @.C.A.A.A.A.A.,.r f.A.A.A.A.A.A.A.",
"A.A.A.A.A.A.A.N.r.m.A.A.C.=.u       . u i.N.A.A.A.A.A.A.A.A.A.A.A.f.%.6 = @ @ % % = > 4 p %.p.C.A.A.A.A.A.A.,.r f.A.A.A.A.A.A.A.",
"A.A.A.A.A.A.A.C.r.n.A.A.A.f...r r d z -.N.C.A.A.A.A.A.A.A.A.A.A.A.N.g.$...[ [ ..| | ..+.-.h.N.A.A.A.A.A.A.A.,.r f.A.A.A.A.A.A.A.",
"A.A.A.A.A.A.A.N.r.m.A.A.A.A.N.d.s.m.A.A.A.A.A.A.A.A.A.A.A.A.A.A.A.A.A.A.A.A.A.A.A.A.A.A.A.A.A.A.A.A.A.A.A.A.,.r f.A.A.A.A.A.A.A.",
"A.A.A.A.A.A.A.N.r.m.A.A.A.A.A.A.A.A.A.A.A.A.A.A.A.A.A.A.A.A.A.A.A.A.A.A.A.A.A.A.A.A.A.A.A.A.A.A.A.A.A.A.A.A.,.r f.A.A.A.A.A.A.A.",
"A.A.A.A.A.A.A.C.r.m.A.A.A.A.A.A.A.A.A.A.A.A.A.A.A.A.A.A.A.A.A.A.A.A.A.A.A.A.A.A.A.A.A.A.A.A.A.A.A.A.A.A.A.A.,.r f.A.A.A.A.A.A.A.",
"A.A.A.A.A.A.A.N.r.m.A.A.A.A.A.A.A.A.A.A.A.A.A.A.A.A.A.A.A.A.A.A.A.A.A.A.A.A.A.A.A.A.A.A.A.A.A.A.A.A.A.A.A.A.,.r f.A.A.A.A.A.A.A.",
"A.A.A.A.A.A.A.B.r.n.A.A.A.A.A.A.A.A.A.A.A.A.A.A.A.A.A.A.A.A.A.A.A.A.A.A.A.A.A.A.A.A.A.A.A.A.A.A.A.A.A.A.A.A.,.r f.A.A.A.A.A.A.A.",
"A.A.A.A.A.A.A.B.r.M.A.A.A.A.A.A.A.A.A.A.A.A.A.A.A.A.A.A.A.A.A.A.A.A.A.A.A.A.A.A.A.A.A.A.A.A.A.A.A.A.A.A.A.A.,.r f.A.A.A.A.A.A.A.",
"A.A.A.A.A.A.A.V.r.M.A.A.A.A.A.A.A.A.A.A.A.A.A.A.A.A.A.A.A.A.A.A.A.A.A.A.A.A.A.A.A.A.A.A.A.A.A.A.A.A.A.A.A.A.,.r f.A.A.A.A.A.A.A.",
"A.A.A.A.A.A.A.B.r.n.A.A.A.A.A.A.A.A.A.A.A.A.A.A.A.A.A.A.A.A.A.A.A.A.A.A.A.A.A.A.A.A.A.A.A.A.A.A.A.A.A.A.A.A.,.r f.A.A.A.A.A.A.A.",
"A.A.A.A.A.A.A.V.r.m.A.A.A.A.A.A.A.A.A.A.A.A.A.A.A.A.A.A.A.A.A.A.A.A.A.A.A.A.A.A.A.A.A.A.A.A.A.A.A.A.A.A.A.A.,.r f.A.A.A.A.A.A.A.",
"A.A.A.A.A.A.A.V.r.n.A.A.A.A.A.A.A.A.A.A.A.A.A.A.A.A.A.A.A.A.A.A.A.A.A.A.A.A.A.A.A.A.A.A.A.A.A.A.A.A.A.A.A.A.:.r f.A.A.A.A.A.A.A.",
"A.A.A.A.A.A.A.N.r.h.C.A.A.A.A.A.A.A.A.A.A.A.A.A.A.A.A.A.A.A.A.A.A.A.A.A.A.A.A.A.A.A.A.A.A.A.A.A.A.A.A.A.A.n.] r f.A.A.A.A.A.A.A.",
"A.A.A.A.A.A.A.C.j.4.-.:.:.:.:.:.:.:.:.:.:.:.:.:.:.:.:.:.:.:.:.:.:.:.:.:.:.:.:.:.:.:.:.:.:.:.:.:.:.:.:.:.:.O.} O.N.A.A.A.A.A.A.A."
};
