/* XPM */
static char *south[] = {
/* columns rows colors chars-per-pixel */
"64 64 142 2 ",
"   c #030202",
".  c #090706",
"X  c #0D0A0A",
"o  c #110E0D",
"O  c #13100F",
"+  c #151211",
"@  c #191614",
"#  c #1C1817",
"$  c #211D1C",
"%  c #26211E",
"&  c #28221E",
"*  c #262322",
"=  c #292523",
"-  c #2D2926",
";  c #2F2A29",
":  c #322E2C",
">  c #35312F",
",  c #3A322D",
"<  c #363231",
"1  c #3A3634",
"2  c #3D3B3B",
"3  c #423A34",
"4  c #423E3B",
"5  c #45403E",
"6  c #4C423B",
"7  c #6A5739",
"8  c #464240",
"9  c #4A4644",
"0  c #4E4946",
"q  c #4D4A49",
"w  c #544C46",
"e  c #584F4A",
"r  c #54504E",
"t  c #5B534E",
"y  c #565352",
"u  c #5D5753",
"i  c #5D5956",
"p  c #5D5B5A",
"a  c #6B5E4B",
"s  c #625C56",
"d  c #625D59",
"f  c #65615E",
"g  c #6C635C",
"h  c #656361",
"j  c #6D6663",
"k  c #726A66",
"l  c #756D69",
"z  c #75716E",
"x  c #7A736F",
"c  c #767371",
"v  c #7C7671",
"b  c #7E7B79",
"n  c #827B75",
"m  c #847E7A",
"M  c #D99B1E",
"N  c #D69B26",
"B  c #D99C21",
"V  c #D69E2B",
"C  c #C99735",
"Z  c #C7983E",
"A  c #C9993D",
"S  c #D49F32",
"D  c #DAA027",
"F  c #DAA22E",
"G  c #DAA433",
"H  c #DCA93C",
"J  c #B89556",
"K  c #85817E",
"L  c #8A837D",
"P  c #A98F65",
"I  c #AF9262",
"U  c #BF9D60",
"Y  c #C59842",
"T  c #C59A48",
"R  c #DCAC45",
"E  c #DCAD4A",
"W  c #CCA455",
"Q  c #CAA359",
"!  c #D3A952",
"~  c #CFAF6F",
"^  c #CBAA71",
"/  c #D7B679",
"(  c #DABC7E",
")  c #858382",
"_  c #8A8582",
"`  c #8D8987",
"'  c #928B86",
"]  c #998F84",
"[  c #96918D",
"{  c #9A928C",
"}  c #979492",
"|  c #9A9693",
" . c #9F9891",
".. c #A29B95",
"X. c #A19D9B",
"o. c #A6A09C",
"O. c #A9A29C",
"+. c #ABA5A1",
"@. c #AAA8A6",
"#. c #AEAAA8",
"$. c #B3ABA6",
"%. c #B2ADAA",
"&. c #B6B1AE",
"*. c #B5B3B2",
"=. c #B9B5B2",
"-. c #BEBBB9",
";. c #C4B297",
":. c #C1BBB7",
">. c #C2BEBB",
",. c #D9C7A7",
"<. c #C4C0BC",
"1. c #C8C3BF",
"2. c #DDCDB2",
"3. c #DFD2B8",
"4. c #E3CEA3",
"5. c #E2D4BA",
"6. c #E6D8BF",
"7. c #C5C3C1",
"8. c #CCC9C6",
"9. c #CCCAC9",
"0. c #D1CECC",
"q. c #D4D1CE",
"w. c #D4D1D0",
"e. c #D9D6D5",
"r. c #DCD9D7",
"t. c #DDDBD9",
"y. c #E6D9C1",
"u. c #E9DDC3",
"i. c #E1DFDD",
"p. c #E3E0DC",
"a. c #E9E3D9",
"s. c #F0E6D3",
"d. c #E6E4E3",
"f. c #E8E6E5",
"g. c #EAE8E7",
"h. c #EDECEB",
"j. c #F0EFEE",
"k. c #F1F0EF",
"l. c #F4F3F3",
"z. c #F8F7F7",
"x. c #F9F8F6",
"c. c #FEFEFE",
/* pixels */
"c.c.c.c.c.c.c.c.c.x.,.^ T T A Z Y Y Y T A A Y Y Y Y Y Y Y Y Y A A Y Y Y Y Y A A Y Y Y A A Y Y Y Y A Y Y U ,.l.x.c.c.c.c.c.c.c.c.",
"c.c.c.c.c.c.c.c.c.2.W G N N N N N N N N N N N N N N N N N N N N N N N N V N N N N N N N N N N N N N N N N Q ;.h.c.c.c.c.c.c.c.c.",
"c.c.c.c.c.c.c.l.y./ S F N M N M M M N N N M M N N M M N N M M M N M M B M N N M M N M N N M M M B B B B M H ! ;.g.c.c.c.c.c.c.c.",
"c.c.c.c.c.c.c.a.I C F G F F F F F F F V N F F G G D F F F F F F V V F F F F V F F F F S V F F F F F D V V V V 7 e.c.c.c.c.c.c.c.",
"c.c.c.c.c.c.c.a.P A H E R R E E E E E E E E E E E R E E E E E E R E E E E E R E E E ! E E E E E E E R ! H H V 7 e.c.c.c.c.c.c.c.",
"c.c.c.c.c.c.c.s.J ~ 4.5.5.5.y.5.u.3.y.3.5.5.y.3.5.5.6.5.6.6.6.6.5.u.3.u.6.5.6.6.y.u.3.5.y.5.5.y.y.5.u.5.6.4.( a 9.c.c.c.c.c.c.c.",
"c.c.c.c.c.c.c.g.^ :.i.f.g.l.g.f.j.g.g.g.g.l.l.g.g.h.g.f.g.j.f.f.g.f.j.f.f.k.f.j.d.g.j.j.g.d.d.g.g.f.g.f.f.i.3.g 0.c.c.c.c.c.c.c.",
"c.c.c.c.c.c.c.g.+.9.l.g.l.g.l.g.l.j.j.l.g.g.d.g.k.k.j.j.j.k.j.f.k.j.j.j.f.l.f.j.g.k.k.j.j.k.k.k.k.j.j.j.j.f.i.g 0.c.c.c.c.c.c.c.",
"c.c.c.c.c.c.c.g.%.t.x.c.c.c.c.c.c.z.c.c.c.c.c.c.c.c.c.c.c.c.c.c.c.c.c.c.c.c.c.c.z.c.c.c.c.c.c.c.c.c.c.c.c.c.l.g 0.c.c.c.c.c.c.c.",
"c.c.c.c.c.c.c.g.:.d.c.c.c.c.c.c.c.c.c.c.c.c.c.c.c.c.c.c.c.c.c.c.c.c.c.c.c.c.c.c.c.c.c.c.c.c.c.c.c.c.c.c.c.c.z.l e.c.c.c.c.c.c.c.",
"c.c.c.c.c.c.c.k.>.f.c.c.c.c.c.c.c.c.c.c.c.c.c.c.c.c.c.c.c.c.c.c.c.c.c.c.c.c.c.c.c.c.c.c.c.c.c.c.c.c.c.c.c.c.z.l 9.c.c.c.c.c.c.c.",
"c.c.c.c.c.c.c.j.>.f.c.c.c.c.c.c.c.c.c.c.c.c.c.c.c.c.c.c.c.c.c.c.c.c.c.c.c.c.c.c.c.c.c.c.c.c.c.c.c.c.c.c.c.c.l.x 0.c.c.c.c.c.c.c.",
"c.c.c.c.c.c.c.k.<.f.c.c.c.c.c.c.c.c.c.c.c.c.c.c.c.c.c.c.c.c.c.c.c.c.c.c.c.c.c.c.c.c.c.c.c.c.c.c.c.c.c.c.c.c.c.v e.c.c.c.c.c.c.c.",
"c.c.c.c.c.c.c.k.<.f.c.c.c.c.c.c.c.c.c.c.c.c.c.c.c.c.c.c.c.c.c.c.c.c.c.c.c.c.c.c.c.c.c.c.c.c.c.c.c.c.c.c.c.c.l.x 0.c.c.c.c.c.c.c.",
"c.c.c.c.c.c.c.j.<.f.c.c.c.c.c.c.c.c.c.c.c.c.c.c.c.c.c.c.c.c.c.l.j.z.c.c.c.c.c.c.c.c.c.c.c.c.c.c.c.c.c.c.c.c.l.x e.c.c.c.c.c.c.c.",
"c.c.c.c.c.c.c.j.>.f.c.c.c.c.c.c.c.c.c.c.c.c.c.c.c.c.c.c.c.c.r.| ) 7.j.c.c.c.c.c.c.c.c.c.c.c.c.c.c.c.c.c.c.c.x.z e.c.c.c.c.c.c.c.",
"c.c.c.c.c.c.c.j.<.f.c.c.c.c.c.c.c.c.c.c.c.c.c.c.c.c.c.c.c.c.&.$ X b 8.c.c.c.c.c.c.c.c.c.c.c.c.c.c.c.c.c.c.c.l.x e.c.c.c.c.c.c.c.",
"c.c.c.c.c.c.c.j.<.f.c.c.c.c.c.c.c.c.c.c.c.c.c.c.c.c.c.c.c.r.f X   $ p z.c.c.c.c.c.c.c.c.c.c.c.c.c.c.c.c.c.c.z.x e.c.c.c.c.c.c.c.",
"c.c.c.c.c.c.c.k.<.f.c.c.c.c.c.c.c.c.c.c.c.c.c.c.c.c.c.c.d.+.1       : 9.g.c.c.c.c.c.c.c.c.c.c.c.c.c.c.c.c.c.l.x 0.c.c.c.c.c.c.c.",
"c.c.c.c.c.c.c.j.<.f.c.c.c.c.c.c.c.c.c.c.c.c.c.c.c.c.c.l.o.d         o 8 %.c.c.c.c.c.c.c.c.c.c.c.c.c.c.c.c.c.c.x q.c.c.c.c.c.c.c.",
"c.c.c.c.c.c.c.k.<.f.c.c.c.c.c.c.c.c.c.c.c.c.c.c.c.c.c.c.:.v @           ) c.c.c.c.c.c.c.c.c.c.c.c.c.c.c.c.c.c.z e.c.c.c.c.c.c.c.",
"c.c.c.c.c.c.c.j.<.f.c.c.c.c.c.c.c.c.c.c.c.c.c.c.c.c.c.c.j.X.$           j d.c.c.c.c.c.c.c.c.c.c.c.c.c.c.c.c.l.x 0.c.c.c.c.c.c.c.",
"c.c.c.c.c.c.c.k.<.f.c.c.c.c.c.c.c.c.c.c.c.c.c.c.c.c.c.c.c.=.$     5 i w X.j.c.c.c.c.c.c.c.c.c.c.c.c.c.c.c.c.l.v e.c.c.c.c.c.c.c.",
"c.c.c.c.c.c.c.k.<.f.c.c.c.c.c.c.c.c.c.c.c.c.c.c.c.c.c.c.c.*.&   . x ..v >.x.c.c.c.c.c.c.c.c.c.c.c.c.c.c.c.c.l.v e.c.c.c.c.c.c.c.",
"c.c.c.c.c.c.c.k.<.f.c.c.c.c.c.c.c.c.c.c.c.c.c.c.c.c.c.c.c.*.$   & -.i.l m q.c.c.c.c.c.c.c.c.c.c.c.c.c.c.c.c.l.x 0.c.c.c.c.c.c.c.",
"c.c.c.c.c.c.c.k.<.d.c.c.c.c.c.c.c.c.c.c.c.c.c.c.c.c.c.c.c.*.#   + z b < 3 { r.c.c.c.c.c.c.c.c.c.c.c.c.c.c.c.z.x e.c.c.c.c.c.c.c.",
"c.c.c.c.c.c.c.j.<.f.c.c.c.c.c.c.c.c.c.c.c.c.c.c.c.c.c.c.c.+.X   . + o     s &.l.c.c.c.c.c.c.c.c.c.c.c.c.c.c.c.x 0.c.c.c.c.c.c.c.",
"c.c.c.c.c.c.c.j.<.f.c.c.c.c.c.c.c.c.c.c.c.c.c.c.c.c.c.c.c.X.              d $.g.c.c.c.c.c.c.c.c.c.c.c.c.c.c.l.x q.c.c.c.c.c.c.c.",
"c.c.c.c.c.c.c.k.<.f.c.c.c.c.c.c.c.c.c.c.c.c.c.c.l.l.l.t.` q   . X + @ 2 l ] ] +.g.c.c.c.c.c.c.c.c.c.c.c.c.c.c.x e.c.c.c.c.c.c.c.",
"c.c.c.c.c.c.c.k.<.f.c.c.c.c.c.c.c.c.c.c.c.c.l.<.z i 8 > @ X O : v -.e.d. .2 & ; +.t.c.c.c.c.c.c.c.c.c.c.c.c.l.x 0.c.c.c.c.c.c.c.",
"c.c.c.c.c.c.c.l.<.f.c.c.c.c.c.c.c.c.c.c.c.c.l.$.6 , - & X . - m 7.d.t.-.c #   X ..e.c.c.c.c.c.c.c.c.c.c.c.c.l.x e.c.c.c.c.c.c.c.",
"c.c.c.c.c.c.c.g.<.f.c.c.c.c.c.c.c.c.l.g.g.c.c.7.n x ' { < + y l.t. .d + X     * @.t.c.c.c.c.c.c.c.c.c.c.c.c.x.z e.c.c.c.c.c.c.c.",
"c.c.c.c.c.c.c.l.>.f.c.c.c.c.c.c.c.c.g.=.<.g.c.c.c.c.c.j.9 @ e e.v *         X d 7.f.c.c.c.c.c.c.c.c.c.c.c.c.c.x q.c.c.c.c.c.c.c.",
"c.c.c.c.c.c.c.g.>.f.c.c.c.c.c.c.c.c.9.8 5 q h %.z.c.c.l.1 O 3  .{ K d .       $ 4 r | j.c.c.c.c.c.c.c.c.c.c.l.x e.c.c.c.c.c.c.c.",
"c.c.c.c.c.c.c.l.<.f.c.c.c.c.c.c.c.c.7.8 * X o d 9.g.c.d.> o : k _ ' l .           . i 8.l.c.c.c.c.c.c.c.c.c.l.x 0.c.c.c.c.c.c.c.",
"c.c.c.c.c.c.c.g.<.f.c.c.c.c.c.c.c.c.l.d.*.j 5 * = ) w.=.% # e t > O .   + # #       # 4 >.l.c.c.c.c.c.c.c.c.l.x e.c.c.c.c.c.c.c.",
"c.c.c.c.c.c.c.k.<.f.c.c.c.c.j.e.g.c.c.c.z.z.d.m o + ; >   o : 3 3 +     f { z O       X v >.c.c.c.c.c.c.c.c.c.x e.c.c.c.c.c.c.c.",
"c.c.c.c.c.c.c.k.<.f.c.c.c.c.8.m c ] -.l.c.l.e.l X   X @ f m X.X.L = . ; } q.-.w X       2 z d.c.c.c.c.c.c.c.l.x 0.c.c.c.c.c.c.c.",
"c.c.c.c.c.c.c.j.<.f.c.c.c.c.>.g + + 4 ) ] b h 4 4 4 * X o.i.c.c.| # # j $.k.c.-.0 #       + ) c.c.c.c.c.c.c.l.x q.c.c.c.c.c.c.c.",
"c.c.c.c.c.c.c.k.<.f.c.c.c.c.e.O.=     + $ O o > m ' q X _ 7.l.g.r   # n { q.x.l.L 4         2 z.c.c.c.c.c.c.c.z e.c.c.c.c.c.c.c.",
"c.c.c.c.c.c.c.j.<.f.c.c.c.c.c.d.2       X r _ e.g.l._ + > j X.e #     O + j -.g.$.f         < l.c.c.c.c.c.c.l.x 0.c.c.c.c.c.c.c.",
"c.c.c.c.c.c.c.j.<.f.c.c.c.c.c.l.j +       g &.c.l.d.z X @ 1 e $ $ - < 5 4 _ 1.j.' 0         q l.c.c.c.c.c.c.z.x e.c.c.c.c.c.c.c.",
"c.c.c.c.c.c.c.k.<.f.c.c.c.c.c.c.<.;       y  .g.*.v ; o X X     g  .' n { r.k.e.2 O       * o.c.c.c.c.c.c.c.c.x 0.c.c.c.c.c.c.c.",
"c.c.c.c.c.c.c.j.<.f.c.c.c.c.c.c.l.2 .     + 2 t.j : @ 1 $ +     *.1.L 2 v p.x.-.#         2 g.c.c.c.c.c.c.c.l.x e.c.c.c.c.c.c.c.",
"c.c.c.c.c.c.c.k.<.f.c.c.c.c.c.c.z.] w     X * *.e.7.>.>.w &     < 1 - O 2 =.l.l O       = j l.c.c.c.c.c.c.c.z.x e.c.c.c.c.c.c.c.",
"c.c.c.c.c.c.c.j.<.f.c.c.c.c.c.c.c.g.o.o     X d p.%.p q $ o     2 v ` } &.q.9.;         [ e.c.c.c.c.c.c.c.c.z.v 0.c.c.c.c.c.c.c.",
"c.c.c.c.c.c.c.k.<.f.c.c.c.c.c.c.c.c.7.2 +   . 2 q.L & O o . . o z >.q.p.l.e.| +     X - -.c.c.c.c.c.c.c.c.c.l.x q.c.c.c.c.c.c.c.",
"c.c.c.c.c.c.c.k.<.f.c.c.c.c.c.c.c.c.f.%.4     # { m x L t , @ 6 <.c.c.c.x.` & .     8 &.f.c.c.c.c.c.c.c.c.c.z.x e.c.c.c.c.c.c.c.",
"c.c.c.c.c.c.c.k.<.d.c.c.c.c.c.c.c.c.c.c.h .   o t #.c.g.| t $ s 0.c.c.c.e.u       X l c.c.c.c.c.c.c.c.c.c.c.l.x e.c.c.c.c.c.c.c.",
"c.c.c.c.c.c.c.k.<.f.c.c.c.c.c.c.c.c.c.c.X.=   X = } p.=.t & = j e.c.c.c. .=       < *.c.c.c.c.c.c.c.c.c.c.c.l.v e.c.c.c.c.c.c.c.",
"c.c.c.c.c.c.c.j.<.d.c.c.c.c.c.c.c.c.c.c.0.6   . X ) q._ : . * l 7.c.c.d.h         i g.c.c.c.c.c.c.c.c.c.c.c.l.x 0.c.c.c.c.c.c.c.",
"c.c.c.c.c.c.c.j.<.f.c.c.c.c.c.c.c.c.c.c.l._ 4 $ < X.l.e.v 0 + # s &.=.r *     . 4 [ c.c.c.c.c.c.c.c.c.c.c.c.c.x q.c.c.c.c.c.c.c.",
"c.c.c.c.c.c.c.k.<.f.c.c.c.c.c.c.c.c.c.c.c.j.i.7.i.l.c.c.g.t.) # o # # X       + -.g.c.c.c.c.c.c.c.c.c.c.c.c.c.z e.c.c.c.c.c.c.c.",
"c.c.c.c.c.c.c.k.<.f.c.c.c.c.c.c.c.c.c.c.c.c.c.g.c.c.c.c.c.l.7.m 4 X           4 t.l.c.c.c.c.c.c.c.c.c.c.c.c.l.x 0.c.c.c.c.c.c.c.",
"c.c.c.c.c.c.c.l.<.f.c.c.c.c.c.c.c.c.c.c.c.c.c.c.c.c.c.c.c.c.c.c.>.j 8 * $ * 4 +.l.c.c.c.c.c.c.c.c.c.c.c.c.c.l.v e.c.c.c.c.c.c.c.",
"c.c.c.c.c.c.c.g.<.f.c.c.c.c.c.c.c.c.c.c.c.c.c.c.c.c.c.c.c.c.c.c.c.d.>.j w g ' k.c.c.c.c.c.c.c.c.c.c.c.c.c.c.z.v e.c.c.c.c.c.c.c.",
"c.c.c.c.c.c.c.g.<.f.c.c.c.c.c.c.c.c.c.c.c.c.c.c.c.c.c.c.c.c.c.c.c.c.g.t.e.e.d.c.c.c.c.c.c.c.c.c.c.c.c.c.c.c.x.x 0.c.c.c.c.c.c.c.",
"c.c.c.c.c.c.c.k.>.f.c.c.c.c.c.c.c.c.c.c.c.c.c.c.c.c.c.c.c.c.c.c.c.c.c.c.c.c.c.c.c.c.c.c.c.c.c.c.c.c.c.c.c.c.x.x e.c.c.c.c.c.c.c.",
"c.c.c.c.c.c.c.k.<.f.c.c.c.c.c.c.c.c.c.c.c.c.c.c.c.c.c.c.c.c.c.c.c.c.c.c.c.c.c.c.c.c.c.c.c.c.c.c.c.c.c.c.c.c.x.v q.c.c.c.c.c.c.c.",
"c.c.c.c.c.c.c.j.<.f.c.c.c.c.c.c.c.c.c.c.c.c.c.c.c.c.c.c.c.c.c.c.c.c.c.c.c.c.c.c.c.c.c.c.c.c.c.c.c.c.c.c.c.c.l.x 0.c.c.c.c.c.c.c.",
"c.c.c.c.c.c.c.j.<.g.c.c.c.c.c.c.c.c.c.c.c.c.c.c.c.c.c.c.c.c.c.c.c.c.c.c.c.c.c.c.c.c.c.c.c.c.c.c.c.c.c.c.c.c.c.x e.c.c.c.c.c.c.c.",
"c.c.c.c.c.c.c.k.<.t.l.c.c.c.c.c.c.c.c.c.c.c.c.c.c.c.c.c.c.c.c.c.c.c.c.c.c.c.c.c.c.c.c.c.c.c.c.c.c.c.c.c.c.g.7.j q.c.c.c.c.c.c.c.",
"c.c.c.c.c.c.c.k.8.0.d.d.g.f.g.f.d.g.g.d.g.f.d.g.g.g.g.f.g.d.g.d.g.f.d.g.f.f.g.f.d.d.g.g.g.f.g.d.f.f.g.f.g.0.X.v t.c.c.c.c.c.c.c.",
"c.c.c.c.c.c.c.c.x.X.l j l j l l l l j l l l j l l l j l l l j l l l j l l l j l l l l j l l l j l l l j l j g e.c.c.c.c.c.c.c.c."
};
