/* XPM */
static char *west[] = {
/* columns rows colors chars-per-pixel */
"64 64 160 2 ",
"   c #080706",
".  c #0A0807",
"X  c #0D0B0A",
"o  c #110E0D",
"O  c #12100F",
"+  c #151312",
"@  c #191614",
"#  c #1D1B1A",
"$  c #221E1D",
"%  c #25201E",
"&  c #28221E",
"*  c #262322",
"=  c #2A2624",
"-  c #2E2926",
";  c #2D2B2A",
":  c #322A26",
">  c #332E2B",
",  c #38322E",
"<  c #333130",
"1  c #3A3633",
"2  c #3E3C3A",
"3  c #423A36",
"4  c #423D3B",
"5  c #45403E",
"6  c #4B433E",
"7  c #444241",
"8  c #4A4847",
"9  c #4A4948",
"0  c #544B46",
"q  c #544E4B",
"w  c #56504D",
"e  c #5B534D",
"r  c #5B5653",
"t  c #5D5956",
"y  c #5E5B59",
"u  c #625A55",
"i  c #635E5B",
"p  c #62605E",
"a  c #6A625D",
"s  c #646261",
"d  c #6B6663",
"f  c #6F6966",
"g  c #6E6B69",
"h  c #726A65",
"j  c #746D69",
"k  c #7A726E",
"l  c #767372",
"z  c #7C7672",
"x  c #7F7873",
"c  c #A57925",
"v  c #817770",
"b  c #827A74",
"n  c #847E7B",
"m  c #CF992D",
"M  c #D99C22",
"N  c #D39B2B",
"B  c #C79536",
"V  c #CA9733",
"C  c #C5953A",
"Z  c #C89738",
"A  c #C8983A",
"S  c #D39D31",
"D  c #DBA128",
"F  c #D5A135",
"G  c #D9A231",
"H  c #D3A13B",
"J  c #B28B41",
"K  c #AD8D54",
"L  c #B89656",
"P  c #86807E",
"I  c #8A837D",
"U  c #BD9E65",
"Y  c #BDA16E",
"T  c #CB9D43",
"R  c #D3A444",
"E  c #D8A640",
"W  c #D9A947",
"Q  c #D1A44B",
"!  c #D6A84A",
"~  c #DEB35A",
"^  c #CFAB67",
"/  c #C2A26A",
"(  c #DBB66C",
")  c #DEB86C",
"_  c #D6B573",
"`  c #D8B774",
"'  c #DBB975",
"]  c #DCBC7A",
"[  c #E1BB6E",
"{  c #878482",
"}  c #8B8581",
"|  c #8E8986",
" . c #8D8B8A",
".. c #928A85",
"X. c #958E89",
"o. c #95908D",
"O. c #9B928D",
"+. c #999796",
"@. c #9E9995",
"#. c #AA9C82",
"$. c #A29B95",
"%. c #A19C9A",
"&. c #A7A29E",
"*. c #BBAB95",
"=. c #A7A6A5",
"-. c #AAA6A2",
";. c #AEAAA7",
":. c #B2ABA5",
">. c #B3ADA9",
",. c #B5B1AE",
"<. c #B9B2AD",
"1. c #B7B3B2",
"2. c #BAB6B3",
"3. c #BDB8B5",
"4. c #BEBBBA",
"5. c #D5B982",
"6. c #C9B694",
"7. c #CBB898",
"8. c #C0BAB6",
"9. c #C1BEBD",
"0. c #DCC495",
"q. c #DCC69C",
"w. c #E8CB8F",
"e. c #E1C793",
"r. c #E6CA93",
"t. c #E3CB9A",
"y. c #CEC1AC",
"u. c #D5C3A2",
"i. c #DCC8A3",
"p. c #DCCAA9",
"a. c #C5C1BE",
"s. c #CDC5BA",
"d. c #DBCCB3",
"f. c #E3D0AA",
"g. c #E7D6B4",
"h. c #C6C4C2",
"j. c #CBC6C2",
"k. c #CCC8C5",
"l. c #CCCBCA",
"z. c #D1CDCB",
"x. c #D5D1CE",
"c. c #D6D3D1",
"v. c #D9D6D5",
"b. c #DDDBDA",
"n. c #E7DCCA",
"m. c #E1DEDC",
"M. c #EAE2D5",
"N. c #E3E0DE",
"B. c #F1E9DB",
"V. c #E6E4E2",
"C. c #E8E6E5",
"Z. c #EBE8E7",
"A. c #EDEBEA",
"S. c #F1ECE5",
"D. c #F0EFEE",
"F. c #F1F0EF",
"G. c #F5F4F4",
"H. c #F8F7F6",
"J. c #F9F8F7",
"K. c #FEFEFE",
/* pixels */
"K.K.K.K.K.K.K.K.K.K.K.B.f.i.t.q.q.e.q.u.q.t.w.q.i.r.i.q.0.q.i.q.e.w.t.i.q.e.0.r.q.r.u.q.i.r.t.i.r.0.q.t.i.p.H.K.K.K.K.K.K.K.K.K.",
"K.K.K.K.K.K.K.K.K.J.n.5.R A N C m V N N Z G N V B m C C N N B V V S S Z V N C V m S C V C N S S V V A V S T d.M.K.K.K.K.K.K.K.K.",
"K.K.K.K.K.K.K.K.K.B.^ Q M M M M M M M M M M M M M M M M M M M M M M M M M M M M M M M M M M M M M M M M M M / 7.K.K.K.K.K.K.K.K.",
"K.K.K.K.K.K.K.K.y.Y F G M M M M M M M M M M M M N M M M M M M M M M M M M M M M M M M M M M M M M M M M M M S J +.K.K.K.K.K.K.K.",
"K.K.K.K.K.K.K.K.6.K M N H H H H H H H H H H S H H H F E R F S H H H H W F H H H H S F H H H ! F H Q H H H F D c z K.K.K.K.K.K.K.",
"K.K.K.K.K.K.K.K.6.L W ~ ' ' ' ] ` ' ' _ ` ' ] ] ] ] [ ' _ ' ` ( ] ` ` ' ' ] ] ' ] ` ' ' _ ] ' ' ( ' ] ) ' [ Q J z K.K.K.K.K.K.K.",
"K.K.K.K.K.K.K.K.7.U i.M.C.V.V.A.V.C.A.V.Z.Z.Z.A.Z.D.N.Z.A.C.C.V.Z.V.A.A.A.C.M.A.A.C.C.A.C.C.C.D.C.C.Z.N.C.C.g.Y b K.K.K.K.K.K.K.",
"K.K.K.K.K.K.K.K.s.*.m.V.D.V.A.A.A.C.A.D.Z.A.A.A.Z.Z.A.Z.A.A.F.G.A.Z.C.A.D.C.Z.A.A.A.C.A.A.Z.C.A.D.Z.D.Z.C.Z.S.&.z K.K.K.K.K.K.K.",
"K.K.K.K.K.K.K.K.s.<.G.H.H.H.H.G.K.G.G.G.G.H.J.H.K.H.K.J.G.H.G.G.H.G.K.G.K.G.G.G.G.K.G.H.K.G.G.J.J.G.J.K.J.J.J.:.b K.K.K.K.K.K.K.",
"K.K.K.K.K.K.K.K.k.8.H.K.K.K.K.K.K.K.K.K.K.K.K.K.K.K.K.K.K.K.K.K.K.K.K.K.K.K.K.K.K.K.K.K.K.K.K.K.K.K.K.K.K.K.K.2.x K.K.K.K.K.K.K.",
"K.K.K.K.K.K.K.K.c.j.K.K.K.K.K.K.K.K.K.K.K.K.K.K.K.K.K.K.K.K.K.K.K.K.K.K.K.K.K.K.K.K.K.K.K.K.K.K.K.K.K.K.K.K.K.9.b K.K.K.K.K.K.K.",
"K.K.K.K.K.K.K.K.c.k.K.K.K.K.K.K.K.K.K.K.K.K.K.K.K.K.K.K.K.K.K.K.K.K.K.K.K.K.K.K.K.K.K.K.K.K.K.K.K.K.K.K.K.K.K.9.n K.K.K.K.K.K.K.",
"K.K.K.K.K.K.K.K.c.k.K.K.K.K.K.K.K.K.K.K.K.K.K.K.K.K.K.K.K.K.K.K.K.K.K.K.K.K.K.K.K.K.K.K.K.K.K.K.K.K.K.K.K.K.K.9.P K.K.K.K.K.K.K.",
"K.K.K.K.K.K.K.K.c.k.G.K.K.K.K.K.K.K.K.K.K.K.K.K.K.K.K.K.K.K.K.K.K.K.K.K.K.K.K.K.K.K.K.K.K.K.K.K.K.K.K.K.K.K.K.9.P K.K.K.K.K.K.K.",
"K.K.K.K.K.K.K.K.c.k.K.K.K.K.K.K.K.K.K.K.K.K.K.K.K.K.K.K.K.K.K.K.K.K.K.K.K.K.K.K.K.K.K.K.K.K.K.K.K.K.K.K.K.K.K.9.P K.K.K.K.K.K.K.",
"K.K.K.K.K.K.K.K.c.k.K.K.K.K.K.K.K.K.K.K.K.K.K.K.K.K.K.K.K.K.K.K.K.K.K.K.K.K.K.K.K.K.K.K.K.K.K.K.K.K.K.K.K.K.K.4.P K.K.K.K.K.K.K.",
"K.K.K.K.K.K.K.K.c.k.K.K.K.K.K.K.K.K.K.K.K.K.K.K.K.K.K.K.K.K.K.K.K.K.K.K.K.K.K.K.K.K.K.K.K.K.K.K.K.K.K.K.K.K.K.9.P K.K.K.K.K.K.K.",
"K.K.K.K.K.K.K.K.c.k.K.K.K.K.K.K.K.K.K.K.K.K.K.K.K.K.K.K.K.K.K.K.K.K.K.K.K.K.K.K.K.K.K.K.K.K.K.K.K.K.K.K.K.K.K.9.P K.K.K.K.K.K.K.",
"K.K.K.K.K.K.K.K.c.k.J.K.K.K.K.K.K.K.K.K.K.K.K.K.K.K.K.K.K.K.K.K.K.K.K.K.K.K.K.K.K.K.K.K.K.K.K.K.K.K.K.K.K.K.K.9.P K.K.K.K.K.K.K.",
"K.K.K.K.K.K.K.K.x.j.K.K.K.K.K.K.K.K.K.K.K.K.K.K.K.K.K.K.K.K.K.K.K.K.K.K.K.K.K.K.K.K.K.K.K.K.K.K.K.K.K.K.K.K.K.9.P K.K.K.K.K.K.K.",
"K.K.K.K.K.K.K.K.c.k.K.K.K.K.K.K.K.K.K.K.K.K.K.K.K.K.K.K.K.K.K.K.K.K.K.G.G.a.@.O.P } 2.v.K.K.K.K.K.K.K.K.K.K.K.9.P K.K.K.K.K.K.K.",
"K.K.K.K.K.K.K.K.c.k.K.K.K.K.K.K.K.K.K.K.K.K.K.K.K.K.K.K.K.K.G.A.V.b.c.h.2.n u 8 , 1 k -.V.K.K.K.K.K.K.K.K.K.K.9.P K.K.K.K.K.K.K.",
"K.K.K.K.K.K.K.K.c.k.K.K.K.K.K.K.K.K.K.K.K.K.J.G.C.V.b.v.z.h.-.b a 1 - @               $ f h.b.G.K.K.K.K.K.K.K.9.P K.K.K.K.K.K.K.",
"K.K.K.K.K.K.K.K.x.j.J.K.K.K.K.K.K.K.K.K.K.K.N.a.I i 8 > + + X                           X o f m.K.K.K.K.K.K.K.9.P K.K.K.K.K.K.K.",
"K.K.K.K.K.K.K.K.c.k.K.K.K.K.K.K.F.v.z.-.X.l s r 1 = + + o + $ & % = % O                     = { ,.K.K.K.K.K.K.9.P K.K.K.K.K.K.K.",
"K.K.K.K.K.K.K.K.c.k.K.K.K.K.K.F.v.%.X.e >     X + + # = 1 2 0 e u u q %                       > j G.K.K.K.K.K.9.P K.K.K.K.K.K.K.",
"K.K.K.K.K.K.K.K.c.k.K.K.K.K.J.z. .* = $ * 2 a P >.h.b.V.V.V.C.V.V.l.-.4   ; = * # + + O . X X $ q G.K.K.K.K.K.9.P K.K.K.K.K.K.K.",
"K.K.K.K.K.K.K.K.c.k.G.K.K.K.K.G.c.&.-.l.b.V.C.A.G.K.K.K.K.K.K.G.9.e $ + = x.V.b.c.h.1.-.| I h ..1.H.K.K.K.K.K.9.P K.K.K.K.K.K.K.",
"K.K.K.K.K.K.K.K.c.k.K.K.K.K.K.K.G.v.N.G.K.K.K.K.K.K.9.c.G.K.K.z.} #     # =.J.K.K.D.V.m.j.j.2.k.m.K.K.K.K.K.K.9.P K.K.K.K.K.K.K.",
"K.K.K.K.K.K.K.K.c.k.H.K.K.K.K.K.K.K.K.K.K.K.K.K.K.V.8 y l.K.V.d :     o $ p A.K.K.K.K.K.K.K.K.K.K.K.K.K.K.K.K.9.P K.K.K.K.K.K.K.",
"K.K.K.K.K.K.K.K.c.k.K.K.K.K.K.K.K.K.K.K.K.K.K.K.G.b.$ # X.K.2.;       > e +.G.K.K.K.K.K.K.K.K.K.K.K.K.K.K.K.K.9.P K.K.K.K.K.K.K.",
"K.K.K.K.K.K.K.K.c.k.K.K.K.K.K.K.K.K.K.K.K.K.K.K.K.V.$ + { G.k - + X e $.9.n z @.N.K.K.K.K.K.K.K.K.K.K.K.K.K.K.9.P K.K.K.K.K.K.K.",
"K.K.K.K.K.K.K.K.c.k.K.K.K.K.K.K.K.G.J.K.K.K.K.K.K.C.> o > i e 6 : X = 2 5 # + % q k l.A.K.K.K.K.K.K.K.K.K.K.K.9.P K.K.K.K.K.K.K.",
"K.K.K.K.K.K.K.K.c.k.G.K.K.K.K.K.K.V.4.l.V.K.K.K.K.V.> O X $ 6 , %   X X X         % | 4.G.K.K.K.K.K.K.K.K.K.K.9.P K.K.K.K.K.K.K.",
"K.K.K.K.K.K.K.K.c.k.K.K.K.K.K.K.A.P   1 z K.K.K.K.A.4 @           X : 4 6 O           1 j.K.K.K.K.K.K.K.K.K.K.9.P K.K.K.K.K.K.K.",
"K.K.K.K.K.K.K.K.c.k.K.K.K.K.K.K.G.o.  + 1 +.N.9.{ y #   o % t *   * ;.1.2. .> X       X d k.D.K.K.K.K.K.K.K.K.9.P K.K.K.K.K.K.K.",
"K.K.K.K.K.K.K.K.c.k.K.K.K.K.K.K.K.4.> X   $ r 2 = ; +   7 1.z.7 o q K.K.K.G.2.i         + 5 h.K.K.K.K.K.K.K.K.9.P K.K.K.K.K.K.K.",
"K.K.K.K.K.K.K.K.c.k.K.K.K.K.K.K.K.z.d $       X 7 a > @ s K.K.9   y G.K.K.K.J.{             =.K.K.K.K.K.K.K.K.9.P K.K.K.K.K.K.K.",
"K.K.K.K.K.K.K.K.x.k.G.K.K.K.K.K.K.A.j.4     O | A.b.e $ r c.A.7 X j G.K.K.G.3.y           X -.K.K.K.K.K.K.K.K.9.P K.K.K.K.K.K.K.",
"K.K.K.K.K.K.K.K.c.j.K.K.K.K.K.K.K.K.J.j %     n H.D.u = 7 1.C.7 # X.K.K.K.Z.a -         = o.b.K.K.K.K.K.K.K.K.9.P K.K.K.K.K.K.K.",
"K.K.K.K.K.K.K.K.c.k.K.K.K.K.K.K.K.K.K.+.e     t v.A.i = 8 :.z.2 $ &.K.K.K.c.1 O       + x l.A.K.K.K.K.K.K.K.K.9.P K.K.K.K.K.K.K.",
"K.K.K.K.K.K.K.K.c.k.J.K.K.K.K.K.K.K.K.x.X.    > 1.F.d = 5 :.s.< = 3.K.K.K.3.+         7 V.K.K.K.K.K.K.K.K.K.K.9.P K.K.K.K.K.K.K.",
"K.K.K.K.K.K.K.K.c.k.H.K.K.K.K.K.K.K.K.K.4.@     o.G.j , 5 &.:.> > x.K.K.V.i       X g >.K.K.K.K.K.K.K.K.K.K.K.9.P K.K.K.K.K.K.K.",
"K.K.K.K.K.K.K.K.x.j.K.K.K.K.K.K.K.K.K.K.v.8     j j.} 3 4 $.I $ 2 A.K.m.>.+     $ u l.G.K.K.K.K.K.K.K.K.K.K.K.9.P K.K.K.K.K.K.K.",
"K.K.K.K.K.K.K.K.c.k.K.K.K.K.K.K.K.K.K.K.C.k     w $.O.q 1 #.k $ 2 G.K.4.z X     7 $.V.K.K.K.K.K.K.K.K.K.K.K.K.9.P K.K.K.K.K.K.K.",
"K.K.K.K.K.K.K.K.c.k.K.K.K.K.K.K.K.K.K.K.K.4.@   # 8 -.d 1 I u + 7 F.b.s X     * @.K.K.K.K.K.K.K.K.K.K.K.K.K.K.9.P K.K.K.K.K.K.K.",
"K.K.K.K.K.K.K.K.c.k.K.K.K.K.K.K.K.K.K.K.K.v.q $   # 9.z > v 0 @ r b.x >       i A.K.K.K.K.K.K.K.K.K.K.K.K.K.K.9.P K.K.K.K.K.K.K.",
"K.K.K.K.K.K.K.K.x.j.K.K.K.K.K.K.K.K.K.K.K.A.-.7   O X.u $ q > $ r -.> O     $ { K.K.K.K.K.K.K.K.K.K.K.K.K.K.K.9.P K.K.K.K.K.K.K.",
"K.K.K.K.K.K.K.K.c.k.G.K.K.K.K.K.K.K.K.K.K.C.I 1     % #   + X X # <       + %.l.K.K.K.K.K.K.K.K.K.K.K.K.K.K.K.9.P K.K.K.K.K.K.K.",
"K.K.K.K.K.K.K.K.c.k.K.K.K.K.K.K.K.K.K.K.K.b.8 #                           * b.K.K.K.K.K.K.K.K.K.K.K.K.K.K.K.K.9.P K.K.K.K.K.K.K.",
"K.K.K.K.K.K.K.K.c.k.K.K.K.K.K.K.K.K.K.K.K.l.+                             q A.K.K.K.K.K.K.K.K.K.K.K.K.K.K.K.K.9.P K.K.K.K.K.K.K.",
"K.K.K.K.K.K.K.K.c.k.K.K.K.K.K.K.K.K.K.K.K.V.l s r r y w t t r y t 9 q q t =.G.K.K.K.K.K.K.K.K.K.K.K.K.K.K.K.K.9.P K.K.K.K.K.K.K.",
"K.K.K.K.K.K.K.K.c.j.J.K.K.K.K.K.K.K.K.K.K.K.A.V.b.b.b.v.m.m.b.m.v.x.x.x.v.K.K.K.K.K.K.K.K.K.K.K.K.K.K.K.K.K.K.9.P K.K.K.K.K.K.K.",
"K.K.K.K.K.K.K.K.c.j.K.K.K.K.K.K.K.K.K.K.K.K.K.K.K.K.K.K.K.K.K.K.K.K.K.K.K.K.K.K.K.K.K.K.K.K.K.K.K.K.K.K.K.K.K.9.P K.K.K.K.K.K.K.",
"K.K.K.K.K.K.K.K.c.k.K.K.K.K.K.K.K.K.K.K.K.K.K.K.K.K.K.K.K.K.K.K.K.K.K.K.K.K.K.K.K.K.K.K.K.K.K.K.K.K.K.K.K.K.K.9.P K.K.K.K.K.K.K.",
"K.K.K.K.K.K.K.K.c.k.K.K.K.K.K.K.K.K.K.K.K.K.K.K.K.K.K.K.K.K.K.K.K.K.K.K.K.K.K.K.K.K.K.K.K.K.K.K.K.K.K.K.K.K.K.9.P K.K.K.K.K.K.K.",
"K.K.K.K.K.K.K.K.c.k.K.K.K.K.K.K.K.K.K.K.K.K.K.K.K.K.K.K.K.K.K.K.K.K.K.K.K.K.K.K.K.K.K.K.K.K.K.K.K.K.K.K.K.K.K.9.P K.K.K.K.K.K.K.",
"K.K.K.K.K.K.K.K.c.k.G.K.K.K.K.K.K.K.K.K.K.K.K.K.K.K.K.K.K.K.K.K.K.K.K.K.K.K.K.K.K.K.K.K.K.K.K.K.K.K.K.K.K.K.K.9.P K.K.K.K.K.K.K.",
"K.K.K.K.K.K.K.K.c.k.K.K.K.K.K.K.K.K.K.K.K.K.K.K.K.K.K.K.K.K.K.K.K.K.K.K.K.K.K.K.K.K.K.K.K.K.K.K.K.K.K.K.K.K.K.9.P K.K.K.K.K.K.K.",
"K.K.K.K.K.K.K.K.c.k.K.K.K.K.K.K.K.K.K.K.K.K.K.K.K.K.K.K.K.K.K.K.K.K.K.K.K.K.K.K.K.K.K.K.K.K.K.K.K.K.K.K.K.K.K.9.P K.K.K.K.K.K.K.",
"K.K.K.K.K.K.K.K.c.j.K.K.K.K.K.K.K.K.K.K.K.K.K.K.K.K.K.K.K.K.K.K.K.K.K.K.K.K.K.K.K.K.K.K.K.K.K.K.K.K.K.K.K.K.K.9.P K.K.K.K.K.K.K.",
"K.K.K.K.K.K.K.K.c.j.G.K.K.K.K.K.K.K.K.K.K.K.K.K.K.K.K.K.K.K.K.K.K.K.K.K.K.K.K.K.K.K.K.K.K.K.K.K.K.K.K.K.K.K.G.2.P K.K.K.K.K.K.K.",
"K.K.K.K.K.K.K.K.c.j.C.D.K.K.K.K.K.K.K.K.K.K.K.K.K.K.K.K.K.K.K.K.K.K.K.K.K.K.K.K.K.K.K.K.K.K.K.K.K.K.K.K.K.K.s.} P K.K.K.K.K.K.K.",
"K.K.K.K.K.K.K.K.Z.c.;.>.3.2.2.2.2.2.2.3.2.2.2.2.2.3.2.2.2.2.2.3.2.2.2.2.2.3.2.2.2.2.2.3.2.2.2.2.2.3.2.2.2.1.X.X.4.K.K.K.K.K.K.K."
};
